<svg width="30" height="20" viewBox="0 0 30 20" fill="none" xmlns="http://www.w3.org/2000/svg">
<path fill-rule="evenodd" clip-rule="evenodd" d="M0.333374 10C2.64004 4.14667 8.33337 0 15 0C21.6667 0 27.36 4.14667 29.6667 10C27.36 15.8533 21.6667 20 15 20C8.33337 20 2.64004 15.8533 0.333374 10ZM26.7601 10C24.5601 5.50667 20.0534 2.66667 15.0001 2.66667C9.94672 2.66667 5.44006 5.50667 3.24006 10C5.44006 14.4933 9.93339 17.3333 15.0001 17.3333C20.0667 17.3333 24.5601 14.4933 26.7601 10ZM15 6.66667C16.84 6.66667 18.3334 8.16 18.3334 10C18.3334 11.84 16.84 13.3333 15 13.3333C13.16 13.3333 11.6667 11.84 11.6667 10C11.6667 8.16 13.16 6.66667 15 6.66667ZM9.00004 10C9.00004 6.69333 11.6934 4 15 4C18.3067 4 21 6.69333 21 10C21 13.3067 18.3067 16 15 16C11.6934 16 9.00004 13.3067 9.00004 10Z" fill="#309AE7"/>
</svg>
