<svg width="30" height="20" viewBox="0 0 30 20" fill="none" xmlns="http://www.w3.org/2000/svg">
<path fill-rule="evenodd" clip-rule="evenodd" d="M0 10C2.30667 4.14667 8 0 14.6667 0C21.3333 0 27.0267 4.14667 29.3333 10C27.0267 15.8533 21.3333 20 14.6667 20C8 20 2.30667 15.8533 0 10ZM26.4267 10C24.2267 5.50667 19.72 2.66667 14.6667 2.66667C9.61333 2.66667 5.10666 5.50667 2.90666 10C5.10666 14.4933 9.6 17.3333 14.6667 17.3333C19.7333 17.3333 24.2267 14.4933 26.4267 10ZM14.6667 6.66667C16.5067 6.66667 18 8.16 18 10C18 11.84 16.5067 13.3333 14.6667 13.3333C12.8267 13.3333 11.3333 11.84 11.3333 10C11.3333 8.16 12.8267 6.66667 14.6667 6.66667ZM8.66667 10C8.66667 6.69333 11.36 4 14.6667 4C17.9733 4 20.6667 6.69333 20.6667 10C20.6667 13.3067 17.9733 16 14.6667 16C11.36 16 8.66667 13.3067 8.66667 10Z" fill="#F0F0F7"/>
</svg>
